<svg xmlns="http://www.w3.org/2000/svg" viewBox="0 0 120 120" width="120" height="120">
  <defs>
    <filter id="glow" x="-30%" y="-30%" width="160%" height="160%">
      <feGaussianBlur in="SourceGraphic" stdDeviation="2" result="blur"/>
      <feMerge><feMergeNode in="blur"/><feMergeNode in="SourceGraphic"/></feMerge>
    </filter>
    <filter id="outerglow" x="-50%" y="-50%" width="200%" height="200%">
      <feGaussianBlur in="SourceGraphic" stdDeviation="5" result="blur"/>
      <feMerge><feMergeNode in="blur"/><feMergeNode in="SourceGraphic"/></feMerge>
    </filter>
    <radialGradient id="vein-bg" cx="50%" cy="50%" r="50%">
      <stop offset="0%"  stop-color="#ff0020" stop-opacity="0.25"/>
      <stop offset="100%" stop-color="#06090d" stop-opacity="0"/>
    </radialGradient>
    <clipPath id="clip-up">
      <path d="M63.7,40.03c-27.77,0-38.93-27.23-38.93-27.23c-1.22-2.34-1.79-5.33-0.03-7.38c0.13-0.15,0.26-0.28,0.39-0.41c2.19-2.02,5.49-0.86,6.61,2.11c2.27,6.02,11.25,18.63,31.79,18.63c21.24,0,30.81-13.83,32.87-19.01c0.43-1.09,1.18-2.01,2.17-2.4c1.58-0.62,3.4-0.2,4.66,1.26c1.76,2.04,1.3,4.28-0.02,7.38C103.21,12.98,91.47,40.03,63.7,40.03z"/>
    </clipPath>
    <clipPath id="clip-down">
      <path d="M64.71,87.97c27.77,0,38.93,27.23,38.93,27.23c1.22,2.34,1.79,5.33,0.03,7.38c-0.13,0.15-0.26,0.28-0.39,0.41c-2.19,2.02-5.49,0.86-6.61-2.11c-2.27-6.02-11.25-18.63-31.79-18.63c-21.24,0-30.81,13.83-32.87,19.01c-0.43,1.09-1.18,2.01-2.17,2.4c-1.58,0.62-3.4,0.2-4.66-1.26c-1.76-2.04-1.3-4.28,0.02-7.38C25.2,115.02,36.93,87.97,64.71,87.97z"/>
    </clipPath>
    <clipPath id="clip-right">
      <path d="M87.97,63.62c0-27.33,27.23-38.31,27.23-38.31c2.34-1.2,5.33-1.76,7.38-0.03c0.15,0.12,0.28,0.25,0.41,0.39c2.02,2.15,0.86,5.4-2.11,6.5c-6.02,2.24-18.63,11.07-18.63,31.28c0,20.9,13.83,30.32,19.01,32.34c1.09,0.42,2.01,1.16,2.4,2.13c0.62,1.56,0.2,3.35-1.26,4.59c-2.04,1.73-4.28,1.28-7.38-0.01C115.02,102.49,87.97,90.94,87.97,63.62z"/>
    </clipPath>
    <clipPath id="clip-left">
      <path d="M40.03,64.21c0,27.33-27.23,38.31-27.23,38.31c-2.34,1.2-5.33,1.76-7.38,0.03c-0.15-0.12-0.28-0.25-0.41-0.39c-2.02-2.15-0.86-5.4,2.11-6.5c6.02-2.24,18.63-11.07,18.63-31.28c0-20.9-13.83-30.32-19.01-32.34c-1.09-0.42-2.01-1.16-2.4-2.13c-0.62-1.56-0.2-3.35,1.26-4.59c2.04-1.73,4.28-1.28,7.38,0.01C12.98,25.33,40.03,36.88,40.03,64.21z"/>
    </clipPath>
  </defs>


  <g transform="scale(0.9375)">
    <circle cx="64" cy="64" r="60" fill="url(#vein-bg)"/>

    <!-- Outer bloom -->
    <g filter="url(#outerglow)" opacity="0.55">
      <path d="M63.7,40.03c-27.77,0-38.93-27.23-38.93-27.23c-1.22-2.34-1.79-5.33-0.03-7.38c0.13-0.15,0.26-0.28,0.39-0.41c2.19-2.02,5.49-0.86,6.61,2.11c2.27,6.02,11.25,18.63,31.79,18.63c21.24,0,30.81-13.83,32.87-19.01c0.43-1.09,1.18-2.01,2.17-2.4c1.58-0.62,3.4-0.2,4.66,1.26c1.76,2.04,1.3,4.28-0.02,7.38C103.21,12.98,91.47,40.03,63.7,40.03z" fill="#ff2040"/>
      <path d="M64.71,87.97c27.77,0,38.93,27.23,38.93,27.23c1.22,2.34,1.79,5.33,0.03,7.38c-0.13,0.15-0.26,0.28-0.39,0.41c-2.19,2.02-5.49,0.86-6.61-2.11c-2.27-6.02-11.25-18.63-31.79-18.63c-21.24,0-30.81,13.83-32.87,19.01c-0.43,1.09-1.18,2.01-2.17,2.4c-1.58,0.62-3.4,0.2-4.66-1.26c-1.76-2.04-1.3-4.28,0.02-7.38C25.2,115.02,36.93,87.97,64.71,87.97z" fill="#ff2040"/>
      <path d="M87.97,63.62c0-27.33,27.23-38.31,27.23-38.31c2.34-1.2,5.33-1.76,7.38-0.03c0.15,0.12,0.28,0.25,0.41,0.39c2.02,2.15,0.86,5.4-2.11,6.5c-6.02,2.24-18.63,11.07-18.63,31.28c0,20.9,13.83,30.32,19.01,32.34c1.09,0.42,2.01,1.16,2.4,2.13c0.62,1.56,0.2,3.35-1.26,4.59c-2.04,1.73-4.28,1.28-7.38-0.01C115.02,102.49,87.97,90.94,87.97,63.62z" fill="#ff2040"/>
      <path d="M40.03,64.21c0,27.33-27.23,38.31-27.23,38.31c-2.34,1.2-5.33,1.76-7.38,0.03c-0.15-0.12-0.28-0.25-0.41-0.39c-2.02-2.15-0.86-5.4,2.11-6.5c6.02-2.24,18.63-11.07,18.63-31.28c0-20.9-13.83-30.32-19.01-32.34c-1.09-0.42-2.01-1.16-2.4-2.13c-0.62-1.56-0.2-3.35,1.26-4.59c2.04-1.73,4.28-1.28,7.38,0.01C12.98,25.33,40.03,36.88,40.03,64.21z" fill="#ff2040"/>
    </g>

    <!-- Filled arms -->
    <g filter="url(#glow)">
      <path d="M63.7,40.03c-27.77,0-38.93-27.23-38.93-27.23c-1.22-2.34-1.79-5.33-0.03-7.38c0.13-0.15,0.26-0.28,0.39-0.41c2.19-2.02,5.49-0.86,6.61,2.11c2.27,6.02,11.25,18.63,31.79,18.63c21.24,0,30.81-13.83,32.87-19.01c0.43-1.09,1.18-2.01,2.17-2.4c1.58-0.62,3.4-0.2,4.66,1.26c1.76,2.04,1.3,4.28-0.02,7.38C103.21,12.98,91.47,40.03,63.7,40.03z"
        fill="#7a0012" stroke="#ff1030" stroke-width="1.8"/>
      <path d="M64.71,87.97c27.77,0,38.93,27.23,38.93,27.23c1.22,2.34,1.79,5.33,0.03,7.38c-0.13,0.15-0.26,0.28-0.39,0.41c-2.19,2.02-5.49,0.86-6.61-2.11c-2.27-6.02-11.25-18.63-31.79-18.63c-21.24,0-30.81,13.83-32.87,19.01c-0.43,1.09-1.18,2.01-2.17,2.4c-1.58,0.62-3.4,0.2-4.66-1.26c-1.76-2.04-1.3-4.28,0.02-7.38C25.2,115.02,36.93,87.97,64.71,87.97z"
        fill="#7a0012" stroke="#ff1030" stroke-width="1.8"/>
      <path d="M87.97,63.62c0-27.33,27.23-38.31,27.23-38.31c2.34-1.2,5.33-1.76,7.38-0.03c0.15,0.12,0.28,0.25,0.41,0.39c2.02,2.15,0.86,5.4-2.11,6.5c-6.02,2.24-18.63,11.07-18.63,31.28c0,20.9,13.83,30.32,19.01,32.34c1.09,0.42,2.01,1.16,2.4,2.13c0.62,1.56,0.2,3.35-1.26,4.59c-2.04,1.73-4.28,1.28-7.38-0.01C115.02,102.49,87.97,90.94,87.97,63.62z"
        fill="#7a0012" stroke="#ff1030" stroke-width="1.8"/>
      <path d="M40.03,64.21c0,27.33-27.23,38.31-27.23,38.31c-2.34,1.2-5.33,1.76-7.38,0.03c-0.15-0.12-0.28-0.25-0.41-0.39c-2.02-2.15-0.86-5.4,2.11-6.5c6.02-2.24,18.63-11.07,18.63-31.28c0-20.9-13.83-30.32-19.01-32.34c-1.09-0.42-2.01-1.16-2.4-2.13c-0.62-1.56-0.2-3.35,1.26-4.59c2.04-1.73,4.28-1.28,7.38,0.01C12.98,25.33,40.03,36.88,40.03,64.21z"
        fill="#7a0012" stroke="#ff1030" stroke-width="1.8"/>
    </g>

    <!-- 
      Highlight: wide soft stroke tracing the outer edge of each arm.
      The outer edge IS the stroke of each path, so just re-draw each path
      with a bright wide stroke and no fill, clipped to the arm.
      The outer belly is the part farthest from center — we want the
      highlight on the convex (outer) side, not the concave (inner) side.
      Shift the path slightly outward by applying a small scale from center.
    -->
    <g opacity="0.6" clip-path="url(#clip-up)">
      <path d="M63.7,40.03c-27.77,0-38.93-27.23-38.93-27.23c-1.22-2.34-1.79-5.33-0.03-7.38c0.13-0.15,0.26-0.28,0.39-0.41c2.19-2.02,5.49-0.86,6.61,2.11c2.27,6.02,11.25,18.63,31.79,18.63c21.24,0,30.81-13.83,32.87-19.01c0.43-1.09,1.18-2.01,2.17-2.4c1.58-0.62,3.4-0.2,4.66,1.26c1.76,2.04,1.3,4.28-0.02,7.38C103.21,12.98,91.47,40.03,63.7,40.03z"
        fill="none" stroke="#ff8090" stroke-width="6" transform="scale(1.06) translate(-3.8,-3.8)"/>
    </g>
    <g opacity="0.6" clip-path="url(#clip-down)">
      <path d="M64.71,87.97c27.77,0,38.93,27.23,38.93,27.23c1.22,2.34,1.79,5.33,0.03,7.38c-0.13,0.15-0.26,0.28-0.39,0.41c-2.19,2.02-5.49,0.86-6.61-2.11c-2.27-6.02-11.25-18.63-31.79-18.63c-21.24,0-30.81,13.83-32.87,19.01c-0.43,1.09-1.18,2.01-2.17,2.4c-1.58,0.62-3.4,0.2-4.66-1.26c-1.76-2.04-1.3-4.28,0.02-7.38C25.2,115.02,36.93,87.97,64.71,87.97z"
        fill="none" stroke="#ff8090" stroke-width="6" transform="scale(1.06) translate(-3.8,-3.8)"/>
    </g>
    <g opacity="0.6" clip-path="url(#clip-right)">
      <path d="M87.97,63.62c0-27.33,27.23-38.31,27.23-38.31c2.34-1.2,5.33-1.76,7.38-0.03c0.15,0.12,0.28,0.25,0.41,0.39c2.02,2.15,0.86,5.4-2.11,6.5c-6.02,2.24-18.63,11.07-18.63,31.28c0,20.9,13.83,30.32,19.01,32.34c1.09,0.42,2.01,1.16,2.4,2.13c0.62,1.56,0.2,3.35-1.26,4.59c-2.04,1.73-4.28,1.28-7.38-0.01C115.02,102.49,87.97,90.94,87.97,63.62z"
        fill="none" stroke="#ff8090" stroke-width="6" transform="scale(1.06) translate(-3.8,-3.8)"/>
    </g>
    <g opacity="0.6" clip-path="url(#clip-left)">
      <path d="M40.03,64.21c0,27.33-27.23,38.31-27.23,38.31c-2.34,1.2-5.33,1.76-7.38,0.03c-0.15-0.12-0.28-0.25-0.41-0.39c-2.02-2.15-0.86-5.4,2.11-6.5c6.02-2.24,18.63-11.07,18.63-31.28c0-20.9-13.83-30.32-19.01-32.34c-1.09-0.42-2.01-1.16-2.4-2.13c-0.62-1.56-0.2-3.35,1.26-4.59c2.04-1.73,4.28-1.28,7.38,0.01C12.98,25.33,40.03,36.88,40.03,64.21z"
        fill="none" stroke="#ff8090" stroke-width="6" transform="scale(1.06) translate(-3.8,-3.8)"/>
    </g>

    <!-- Center core -->
    <circle cx="64" cy="64" r="7" fill="#ff1030" opacity="0.35"/>
    <circle cx="64" cy="64" r="4.5" fill="#ff1030"/>
    <circle cx="64" cy="64" r="2" fill="#ff90a0"/>
  </g>
</svg>
